<svg xmlns="http://www.w3.org/2000/svg" viewBox="0 0 1600 1000" preserveAspectRatio="xMidYMid slice">
<defs>
<linearGradient id="bg" x1="0" y1="0" x2="1" y2="1"><stop offset="0" stop-color="#161412"/><stop offset=".55" stop-color="#1f1b17"/><stop offset="1" stop-color="#110f0d"/></linearGradient>
<radialGradient id="glow" cx=".72" cy=".28" r=".55"><stop offset="0" stop-color="#d07143" stop-opacity=".16"/><stop offset="1" stop-color="#d07143" stop-opacity="0"/></radialGradient>
<linearGradient id="rib" x1="0" y1="0" x2="0" y2="1"><stop offset="0" stop-color="#fff" stop-opacity=".055"/><stop offset=".5" stop-color="#fff" stop-opacity=".012"/><stop offset="1" stop-color="#000" stop-opacity=".22"/></linearGradient>
<linearGradient id="sl" x1="0" y1="0" x2="1" y2="0"><stop offset="0" stop-color="#d07143" stop-opacity="0"/><stop offset=".35" stop-color="#f2cbb4" stop-opacity=".55"/><stop offset=".7" stop-color="#d07143" stop-opacity=".32"/><stop offset="1" stop-color="#d07143" stop-opacity="0"/></linearGradient>
<linearGradient id="sl2" x1="0" y1="0" x2="1" y2="0"><stop offset="0" stop-color="#d9dde2" stop-opacity="0"/><stop offset=".4" stop-color="#ffffff" stop-opacity=".42"/><stop offset=".8" stop-color="#d9dde2" stop-opacity=".22"/><stop offset="1" stop-color="#d9dde2" stop-opacity="0"/></linearGradient>
<filter id="soft" x="-5%" y="-5%" width="110%" height="110%"><feGaussianBlur stdDeviation="2.2"/></filter>
</defs>
<rect width="1600" height="1000" fill="url(#bg)"/>
<rect width="1600" height="1000" fill="url(#glow)"/>
<path d="M-300.0,190.2 C-275.0,198.3 -200.0,220.9 -150.0,239.2 C-100.0,257.5 -50.0,279.7 0.0,300.0 C50.0,320.3 100.0,342.5 150.0,360.8 C200.0,379.1 250.0,397.0 300.0,409.8 C350.0,422.6 400.0,432.8 450.0,437.5 C500.0,442.2 550.0,442.6 600.0,438.0 C650.0,433.4 700.0,423.6 750.0,410.1 C800.0,396.7 850.0,378.0 900.0,357.4 C950.0,336.9 1000.0,311.9 1050.0,286.9 C1100.0,262.0 1150.0,234.1 1200.0,207.7 C1250.0,181.4 1300.0,153.9 1350.0,128.8 C1400.0,103.7 1450.0,79.2 1500.0,57.1 C1550.0,35.1 1600.0,14.8 1650.0,-3.7 C1700.0,-22.2 1775.0,-45.7 1800.0,-54.1 L1800.0,25.6 C1775.0,32.9 1700.0,54.5 1650.0,69.1 C1600.0,83.6 1550.0,97.2 1500.0,113.0 C1450.0,128.7 1400.0,145.0 1350.0,163.6 C1300.0,182.2 1250.0,202.6 1200.0,224.8 C1150.0,246.9 1100.0,271.5 1050.0,296.5 C1000.0,321.6 950.0,348.9 900.0,375.0 C850.0,401.1 800.0,428.7 750.0,453.1 C700.0,477.6 650.0,501.9 600.0,521.8 C550.0,541.6 500.0,559.5 450.0,572.0 C400.0,584.6 350.0,593.5 300.0,597.1 C250.0,600.7 200.0,599.4 150.0,593.8 C100.0,588.3 50.0,577.2 0.0,563.8 C-50.0,550.3 -100.0,531.8 -150.0,513.2 C-200.0,494.5 -275.0,462.1 -300.0,451.9 Z" fill="url(#rib)"/>
<path d="M-300.0,451.9 C-275.0,462.1 -200.0,494.5 -150.0,513.2 C-100.0,531.8 -50.0,550.3 0.0,563.8 C50.0,577.2 100.0,588.3 150.0,593.8 C200.0,599.4 250.0,600.7 300.0,597.1 C350.0,593.5 400.0,584.6 450.0,572.0 C500.0,559.5 550.0,541.6 600.0,521.8 C650.0,501.9 700.0,477.6 750.0,453.1 C800.0,428.7 850.0,401.1 900.0,375.0 C950.0,348.9 1000.0,321.6 1050.0,296.5 C1100.0,271.5 1150.0,246.9 1200.0,224.8 C1250.0,202.6 1300.0,182.2 1350.0,163.6 C1400.0,145.0 1450.0,128.7 1500.0,113.0 C1550.0,97.2 1600.0,83.6 1650.0,69.1 C1700.0,54.5 1775.0,32.9 1800.0,25.6 L1800.0,82.0 C1775.0,92.3 1700.0,125.3 1650.0,143.8 C1600.0,162.3 1550.0,177.7 1500.0,193.1 C1450.0,208.5 1400.0,221.6 1350.0,236.1 C1300.0,250.6 1250.0,264.2 1200.0,280.0 C1150.0,295.8 1100.0,312.2 1050.0,330.9 C1000.0,349.6 950.0,370.1 900.0,392.3 C850.0,414.5 800.0,439.1 750.0,464.1 C700.0,489.1 650.0,516.3 600.0,542.1 C550.0,568.0 500.0,595.1 450.0,619.1 C400.0,643.0 350.0,666.7 300.0,685.8 C250.0,704.9 200.0,721.9 150.0,733.6 C100.0,745.3 50.0,753.2 0.0,755.9 C-50.0,758.6 -100.0,756.2 -150.0,749.8 C-200.0,743.4 -275.0,722.9 -300.0,717.5 Z" fill="url(#rib)"/>
<path d="M-300.0,717.5 C-275.0,722.9 -200.0,743.4 -150.0,749.8 C-100.0,756.2 -50.0,758.6 0.0,755.9 C50.0,753.2 100.0,745.3 150.0,733.6 C200.0,721.9 250.0,704.9 300.0,685.8 C350.0,666.7 400.0,643.0 450.0,619.1 C500.0,595.1 550.0,568.0 600.0,542.1 C650.0,516.3 700.0,489.1 750.0,464.1 C800.0,439.1 850.0,414.5 900.0,392.3 C950.0,370.1 1000.0,349.6 1050.0,330.9 C1100.0,312.2 1150.0,295.8 1200.0,280.0 C1250.0,264.2 1300.0,250.6 1350.0,236.1 C1400.0,221.6 1450.0,208.5 1500.0,193.1 C1550.0,177.7 1600.0,162.3 1650.0,143.8 C1700.0,125.3 1775.0,92.3 1800.0,82.0 L1800.0,82.7 C1775.0,98.0 1700.0,146.7 1650.0,174.8 C1600.0,203.0 1550.0,228.5 1500.0,251.3 C1450.0,274.2 1400.0,293.8 1350.0,312.0 C1300.0,330.2 1250.0,345.3 1200.0,360.5 C1150.0,375.7 1100.0,388.7 1050.0,403.1 C1000.0,417.5 950.0,431.1 900.0,446.9 C850.0,462.8 800.0,479.3 750.0,498.1 C700.0,516.9 650.0,537.5 600.0,559.8 C550.0,582.0 500.0,606.7 450.0,631.6 C400.0,656.5 350.0,683.6 300.0,709.1 C250.0,734.6 200.0,761.4 150.0,784.8 C100.0,808.2 50.0,831.3 0.0,849.6 C-50.0,868.0 -100.0,884.1 -150.0,894.9 C-200.0,905.7 -275.0,911.1 -300.0,914.3 Z" fill="url(#rib)"/>
<path d="M-300.0,914.3 C-275.0,911.1 -200.0,905.7 -150.0,894.9 C-100.0,884.1 -50.0,868.0 0.0,849.6 C50.0,831.3 100.0,808.2 150.0,784.8 C200.0,761.4 250.0,734.6 300.0,709.1 C350.0,683.6 400.0,656.5 450.0,631.6 C500.0,606.7 550.0,582.0 600.0,559.8 C650.0,537.5 700.0,516.9 750.0,498.1 C800.0,479.3 850.0,462.8 900.0,446.9 C950.0,431.1 1000.0,417.5 1050.0,403.1 C1100.0,388.7 1150.0,375.7 1200.0,360.5 C1250.0,345.3 1300.0,330.2 1350.0,312.0 C1400.0,293.8 1450.0,274.2 1500.0,251.3 C1550.0,228.5 1600.0,203.0 1650.0,174.8 C1700.0,146.7 1775.0,98.0 1800.0,82.7 L1800.0,43.0 C1775.0,60.9 1700.0,115.3 1650.0,150.5 C1600.0,185.6 1550.0,221.3 1500.0,253.8 C1450.0,286.2 1400.0,317.4 1350.0,345.2 C1300.0,373.0 1250.0,398.1 1200.0,420.6 C1150.0,443.1 1100.0,462.3 1050.0,480.2 C1000.0,498.0 950.0,512.9 900.0,527.8 C850.0,542.8 800.0,555.7 750.0,570.0 C700.0,584.3 650.0,598.0 600.0,613.8 C550.0,629.7 500.0,646.3 450.0,665.2 C400.0,684.1 350.0,704.9 300.0,727.2 C250.0,749.4 200.0,774.1 150.0,798.9 C100.0,823.7 50.0,850.6 0.0,875.9 C-50.0,901.1 -100.0,927.4 -150.0,950.3 C-200.0,973.2 -275.0,1002.6 -300.0,1013.1 Z" fill="url(#rib)"/>
<path d="M-300.0,1013.1 C-275.0,1002.6 -200.0,973.2 -150.0,950.3 C-100.0,927.4 -50.0,901.1 0.0,875.9 C50.0,850.6 100.0,823.7 150.0,798.9 C200.0,774.1 250.0,749.4 300.0,727.2 C350.0,704.9 400.0,684.1 450.0,665.2 C500.0,646.3 550.0,629.7 600.0,613.8 C650.0,598.0 700.0,584.3 750.0,570.0 C800.0,555.7 850.0,542.8 900.0,527.8 C950.0,512.9 1000.0,498.0 1050.0,480.2 C1100.0,462.3 1150.0,443.1 1200.0,420.6 C1250.0,398.1 1300.0,373.0 1350.0,345.2 C1400.0,317.4 1450.0,286.2 1500.0,253.8 C1550.0,221.3 1600.0,185.6 1650.0,150.5 C1700.0,115.3 1775.0,60.9 1800.0,43.0 L1800.0,23.2 C1775.0,37.8 1700.0,78.9 1650.0,110.7 C1600.0,142.4 1550.0,178.6 1500.0,213.8 C1450.0,248.9 1400.0,286.6 1350.0,321.8 C1300.0,357.0 1250.0,392.7 1200.0,424.9 C1150.0,457.2 1100.0,488.0 1050.0,515.5 C1000.0,543.0 950.0,567.6 900.0,589.8 C850.0,611.9 800.0,630.7 750.0,648.2 C700.0,665.8 650.0,680.3 600.0,695.1 C550.0,709.9 500.0,722.6 450.0,736.9 C400.0,751.1 350.0,764.8 300.0,780.7 C250.0,796.6 200.0,813.3 150.0,832.3 C100.0,851.2 50.0,872.1 0.0,894.5 C-50.0,916.8 -100.0,941.5 -150.0,966.1 C-200.0,990.8 -275.0,1029.7 -300.0,1042.4 Z" fill="url(#rib)"/>
<path d="M-300.0,1042.4 C-275.0,1029.7 -200.0,990.8 -150.0,966.1 C-100.0,941.5 -50.0,916.8 0.0,894.5 C50.0,872.1 100.0,851.2 150.0,832.3 C200.0,813.3 250.0,796.6 300.0,780.7 C350.0,764.8 400.0,751.1 450.0,736.9 C500.0,722.6 550.0,709.9 600.0,695.1 C650.0,680.3 700.0,665.8 750.0,648.2 C800.0,630.7 850.0,611.9 900.0,589.8 C950.0,567.6 1000.0,543.0 1050.0,515.5 C1100.0,488.0 1150.0,457.2 1200.0,424.9 C1250.0,392.7 1300.0,357.0 1350.0,321.8 C1400.0,286.6 1450.0,248.9 1500.0,213.8 C1550.0,178.6 1600.0,142.4 1650.0,110.7 C1700.0,78.9 1775.0,37.8 1800.0,23.2 L1800.0,88.9 C1775.0,94.9 1700.0,107.7 1650.0,124.6 C1600.0,141.5 1550.0,164.4 1500.0,190.3 C1450.0,216.3 1400.0,247.8 1350.0,280.1 C1300.0,312.5 1250.0,349.2 1200.0,384.7 C1150.0,420.2 1100.0,458.1 1050.0,493.3 C1000.0,528.5 950.0,564.0 900.0,596.1 C850.0,628.2 800.0,658.6 750.0,685.7 C700.0,712.9 650.0,737.1 600.0,758.9 C550.0,780.6 500.0,799.0 450.0,816.2 C400.0,833.5 350.0,847.7 300.0,862.3 C250.0,876.8 200.0,889.4 150.0,903.6 C100.0,917.8 50.0,931.5 0.0,947.5 C-50.0,963.4 -100.0,980.3 -150.0,999.3 C-200.0,1018.3 -275.0,1051.3 -300.0,1061.7 Z" fill="url(#rib)"/>
<path d="M-300.0,1061.7 C-275.0,1051.3 -200.0,1018.3 -150.0,999.3 C-100.0,980.3 -50.0,963.4 0.0,947.5 C50.0,931.5 100.0,917.8 150.0,903.6 C200.0,889.4 250.0,876.8 300.0,862.3 C350.0,847.7 400.0,833.5 450.0,816.2 C500.0,799.0 550.0,780.6 600.0,758.9 C650.0,737.1 700.0,712.9 750.0,685.7 C800.0,658.6 850.0,628.2 900.0,596.1 C950.0,564.0 1000.0,528.5 1050.0,493.3 C1100.0,458.1 1150.0,420.2 1200.0,384.7 C1250.0,349.2 1300.0,312.5 1350.0,280.1 C1400.0,247.8 1450.0,216.3 1500.0,190.3 C1550.0,164.4 1600.0,141.5 1650.0,124.6 C1700.0,107.7 1775.0,94.9 1800.0,88.9 L1800.0,264.5 C1775.0,260.9 1700.0,245.4 1650.0,243.0 C1600.0,240.6 1550.0,242.5 1500.0,250.1 C1450.0,257.8 1400.0,271.1 1350.0,289.1 C1300.0,307.0 1250.0,331.0 1200.0,357.8 C1150.0,384.6 1100.0,416.9 1050.0,449.8 C1000.0,482.8 950.0,519.9 900.0,555.8 C850.0,591.6 800.0,629.6 750.0,664.8 C700.0,700.1 650.0,735.4 600.0,767.2 C550.0,799.1 500.0,829.2 450.0,855.9 C400.0,882.7 350.0,906.5 300.0,927.9 C250.0,949.2 200.0,967.2 150.0,984.1 C100.0,1001.0 50.0,1015.0 0.0,1029.3 C-50.0,1043.7 -100.0,1056.2 -150.0,1070.3 C-200.0,1084.5 -275.0,1106.9 -300.0,1114.2 Z" fill="url(#rib)"/>
<path d="M-300.0,190.2 C-275.0,198.3 -200.0,220.9 -150.0,239.2 C-100.0,257.5 -50.0,279.7 0.0,300.0 C50.0,320.3 100.0,342.5 150.0,360.8 C200.0,379.1 250.0,397.0 300.0,409.8 C350.0,422.6 400.0,432.8 450.0,437.5 C500.0,442.2 550.0,442.6 600.0,438.0 C650.0,433.4 700.0,423.6 750.0,410.1 C800.0,396.7 850.0,378.0 900.0,357.4 C950.0,336.9 1000.0,311.9 1050.0,286.9 C1100.0,262.0 1150.0,234.1 1200.0,207.7 C1250.0,181.4 1300.0,153.9 1350.0,128.8 C1400.0,103.7 1450.0,79.2 1500.0,57.1 C1550.0,35.1 1600.0,14.8 1650.0,-3.7 C1700.0,-22.2 1775.0,-45.7 1800.0,-54.1" fill="none" stroke="url(#sl)" stroke-width="5.1" filter="url(#soft)" opacity=".55"/>
<path d="M-300.0,190.2 C-275.0,198.3 -200.0,220.9 -150.0,239.2 C-100.0,257.5 -50.0,279.7 0.0,300.0 C50.0,320.3 100.0,342.5 150.0,360.8 C200.0,379.1 250.0,397.0 300.0,409.8 C350.0,422.6 400.0,432.8 450.0,437.5 C500.0,442.2 550.0,442.6 600.0,438.0 C650.0,433.4 700.0,423.6 750.0,410.1 C800.0,396.7 850.0,378.0 900.0,357.4 C950.0,336.9 1000.0,311.9 1050.0,286.9 C1100.0,262.0 1150.0,234.1 1200.0,207.7 C1250.0,181.4 1300.0,153.9 1350.0,128.8 C1400.0,103.7 1450.0,79.2 1500.0,57.1 C1550.0,35.1 1600.0,14.8 1650.0,-3.7 C1700.0,-22.2 1775.0,-45.7 1800.0,-54.1" fill="none" stroke="url(#sl)" stroke-width="1.6" stroke-linecap="round"/>
<path d="M-300.0,315.5 C-275.0,325.5 -200.0,355.7 -150.0,375.9 C-100.0,396.2 -50.0,418.5 0.0,437.0 C50.0,455.5 100.0,473.7 150.0,486.8 C200.0,499.9 250.0,510.6 300.0,515.7 C350.0,520.8 400.0,521.7 450.0,517.6 C500.0,513.5 550.0,504.1 600.0,491.1 C650.0,478.1 700.0,459.8 750.0,439.6 C800.0,419.4 850.0,394.8 900.0,370.1 C950.0,345.3 1000.0,317.6 1050.0,291.4 C1100.0,265.2 1150.0,237.8 1200.0,212.7 C1250.0,187.6 1300.0,163.1 1350.0,141.0 C1400.0,118.8 1450.0,98.6 1500.0,80.0 C1550.0,61.4 1600.0,45.2 1650.0,29.5 C1700.0,13.7 1775.0,-7.1 1800.0,-14.5" fill="none" stroke="url(#sl2)" stroke-width="0.7" stroke-linecap="round"/>
<path d="M-300.0,451.9 C-275.0,462.1 -200.0,494.5 -150.0,513.2 C-100.0,531.8 -50.0,550.3 0.0,563.8 C50.0,577.2 100.0,588.3 150.0,593.8 C200.0,599.4 250.0,600.7 300.0,597.1 C350.0,593.5 400.0,584.6 450.0,572.0 C500.0,559.5 550.0,541.6 600.0,521.8 C650.0,501.9 700.0,477.6 750.0,453.1 C800.0,428.7 850.0,401.1 900.0,375.0 C950.0,348.9 1000.0,321.6 1050.0,296.5 C1100.0,271.5 1150.0,246.9 1200.0,224.8 C1250.0,202.6 1300.0,182.2 1350.0,163.6 C1400.0,145.0 1450.0,128.7 1500.0,113.0 C1550.0,97.2 1600.0,83.6 1650.0,69.1 C1700.0,54.5 1775.0,32.9 1800.0,25.6" fill="none" stroke="url(#sl)" stroke-width="1.0" stroke-linecap="round"/>
<path d="M-300.0,589.3 C-275.0,597.9 -200.0,626.9 -150.0,640.7 C-100.0,654.4 -50.0,665.9 0.0,671.9 C50.0,677.8 100.0,679.7 150.0,676.5 C200.0,673.3 250.0,665.0 300.0,652.9 C350.0,640.8 400.0,623.3 450.0,603.8 C500.0,584.4 550.0,560.3 600.0,536.1 C650.0,511.9 700.0,484.6 750.0,458.6 C800.0,432.6 850.0,405.3 900.0,380.3 C950.0,355.3 1000.0,330.7 1050.0,308.5 C1100.0,286.4 1150.0,265.9 1200.0,247.3 C1250.0,228.6 1300.0,212.3 1350.0,196.5 C1400.0,180.7 1450.0,167.1 1500.0,152.6 C1550.0,138.1 1600.0,124.9 1650.0,109.4 C1700.0,93.9 1775.0,67.9 1800.0,59.6" fill="none" stroke="url(#sl2)" stroke-width="0.7" stroke-linecap="round"/>
<path d="M-300.0,717.5 C-275.0,722.9 -200.0,743.4 -150.0,749.8 C-100.0,756.2 -50.0,758.6 0.0,755.9 C50.0,753.2 100.0,745.3 150.0,733.6 C200.0,721.9 250.0,704.9 300.0,685.8 C350.0,666.7 400.0,643.0 450.0,619.1 C500.0,595.1 550.0,568.0 600.0,542.1 C650.0,516.3 700.0,489.1 750.0,464.1 C800.0,439.1 850.0,414.5 900.0,392.3 C950.0,370.1 1000.0,349.6 1050.0,330.9 C1100.0,312.2 1150.0,295.8 1200.0,280.0 C1250.0,264.2 1300.0,250.6 1350.0,236.1 C1400.0,221.6 1450.0,208.5 1500.0,193.1 C1550.0,177.7 1600.0,162.3 1650.0,143.8 C1700.0,125.3 1775.0,92.3 1800.0,82.0" fill="none" stroke="url(#sl)" stroke-width="1.0" stroke-linecap="round"/>
<path d="M-300.0,827.7 C-275.0,829.0 -200.0,837.4 -150.0,835.1 C-100.0,832.9 -50.0,825.5 0.0,814.3 C50.0,803.1 100.0,786.5 150.0,767.8 C200.0,749.0 250.0,725.6 300.0,702.0 C350.0,678.3 400.0,651.3 450.0,625.6 C500.0,600.0 550.0,572.8 600.0,547.9 C650.0,522.9 700.0,498.3 750.0,476.1 C800.0,453.8 850.0,433.2 900.0,414.5 C950.0,395.7 1000.0,379.3 1050.0,363.5 C1100.0,347.7 1150.0,334.1 1200.0,319.6 C1250.0,305.2 1300.0,292.1 1350.0,276.8 C1400.0,261.5 1450.0,246.3 1500.0,227.9 C1550.0,209.6 1600.0,189.7 1650.0,166.7 C1700.0,143.7 1775.0,102.5 1800.0,89.7" fill="none" stroke="url(#sl2)" stroke-width="5.1" filter="url(#soft)" opacity=".55"/>
<path d="M-300.0,827.7 C-275.0,829.0 -200.0,837.4 -150.0,835.1 C-100.0,832.9 -50.0,825.5 0.0,814.3 C50.0,803.1 100.0,786.5 150.0,767.8 C200.0,749.0 250.0,725.6 300.0,702.0 C350.0,678.3 400.0,651.3 450.0,625.6 C500.0,600.0 550.0,572.8 600.0,547.9 C650.0,522.9 700.0,498.3 750.0,476.1 C800.0,453.8 850.0,433.2 900.0,414.5 C950.0,395.7 1000.0,379.3 1050.0,363.5 C1100.0,347.7 1150.0,334.1 1200.0,319.6 C1250.0,305.2 1300.0,292.1 1350.0,276.8 C1400.0,261.5 1450.0,246.3 1500.0,227.9 C1550.0,209.6 1600.0,189.7 1650.0,166.7 C1700.0,143.7 1775.0,102.5 1800.0,89.7" fill="none" stroke="url(#sl2)" stroke-width="1.6" stroke-linecap="round"/>
<path d="M-300.0,914.3 C-275.0,911.1 -200.0,905.7 -150.0,894.9 C-100.0,884.1 -50.0,868.0 0.0,849.6 C50.0,831.3 100.0,808.2 150.0,784.8 C200.0,761.4 250.0,734.6 300.0,709.1 C350.0,683.6 400.0,656.5 450.0,631.6 C500.0,606.7 550.0,582.0 600.0,559.8 C650.0,537.5 700.0,516.9 750.0,498.1 C800.0,479.3 850.0,462.8 900.0,446.9 C950.0,431.1 1000.0,417.5 1050.0,403.1 C1100.0,388.7 1150.0,375.7 1200.0,360.5 C1250.0,345.3 1300.0,330.2 1350.0,312.0 C1400.0,293.8 1450.0,274.2 1500.0,251.3 C1550.0,228.5 1600.0,203.0 1650.0,174.8 C1700.0,146.7 1775.0,98.0 1800.0,82.7" fill="none" stroke="url(#sl)" stroke-width="1.0" stroke-linecap="round"/>
<path d="M-300.0,975.4 C-275.0,968.1 -200.0,949.4 -150.0,931.4 C-100.0,913.4 -50.0,890.7 0.0,867.6 C50.0,844.4 100.0,817.9 150.0,792.5 C200.0,767.1 250.0,740.1 300.0,715.3 C350.0,690.4 400.0,665.8 450.0,643.5 C500.0,621.2 550.0,600.5 600.0,581.6 C650.0,562.8 700.0,546.2 750.0,530.4 C800.0,514.5 850.0,500.9 900.0,486.6 C950.0,472.2 1000.0,459.3 1050.0,444.2 C1100.0,429.1 1150.0,414.1 1200.0,396.1 C1250.0,378.1 1300.0,358.7 1350.0,336.0 C1400.0,313.3 1450.0,288.0 1500.0,260.0 C1550.0,232.1 1600.0,200.8 1650.0,168.2 C1700.0,135.7 1775.0,82.1 1800.0,64.8" fill="none" stroke="url(#sl2)" stroke-width="0.7" stroke-linecap="round"/>
<path d="M-300.0,1013.1 C-275.0,1002.6 -200.0,973.2 -150.0,950.3 C-100.0,927.4 -50.0,901.1 0.0,875.9 C50.0,850.6 100.0,823.7 150.0,798.9 C200.0,774.1 250.0,749.4 300.0,727.2 C350.0,704.9 400.0,684.1 450.0,665.2 C500.0,646.3 550.0,629.7 600.0,613.8 C650.0,598.0 700.0,584.3 750.0,570.0 C800.0,555.7 850.0,542.8 900.0,527.8 C950.0,512.9 1000.0,498.0 1050.0,480.2 C1100.0,462.3 1150.0,443.1 1200.0,420.6 C1250.0,398.1 1300.0,373.0 1350.0,345.2 C1400.0,317.4 1450.0,286.2 1500.0,253.8 C1550.0,221.3 1600.0,185.6 1650.0,150.5 C1700.0,115.3 1775.0,60.9 1800.0,43.0" fill="none" stroke="url(#sl)" stroke-width="1.0" stroke-linecap="round"/>
<path d="M-300.0,1032.9 C-275.0,1020.6 -200.0,984.2 -150.0,959.2 C-100.0,934.1 -50.0,907.3 0.0,882.6 C50.0,857.8 100.0,833.1 150.0,810.8 C200.0,788.5 250.0,767.7 300.0,748.8 C350.0,729.8 400.0,713.1 450.0,697.3 C500.0,681.4 550.0,667.7 600.0,653.4 C650.0,639.1 700.0,626.3 750.0,611.5 C800.0,596.6 850.0,581.9 900.0,564.2 C950.0,546.5 1000.0,527.5 1050.0,505.2 C1100.0,482.9 1150.0,458.0 1200.0,430.3 C1250.0,402.7 1300.0,371.7 1350.0,339.4 C1400.0,307.0 1450.0,271.3 1500.0,236.1 C1550.0,201.0 1600.0,163.4 1650.0,128.4 C1700.0,93.3 1775.0,43.1 1800.0,26.1" fill="none" stroke="url(#sl2)" stroke-width="0.7" stroke-linecap="round"/>
<path d="M-300.0,1042.4 C-275.0,1029.7 -200.0,990.8 -150.0,966.1 C-100.0,941.5 -50.0,916.8 0.0,894.5 C50.0,872.1 100.0,851.2 150.0,832.3 C200.0,813.3 250.0,796.6 300.0,780.7 C350.0,764.8 400.0,751.1 450.0,736.9 C500.0,722.6 550.0,709.9 600.0,695.1 C650.0,680.3 700.0,665.8 750.0,648.2 C800.0,630.7 850.0,611.9 900.0,589.8 C950.0,567.6 1000.0,543.0 1050.0,515.5 C1100.0,488.0 1150.0,457.2 1200.0,424.9 C1250.0,392.7 1300.0,357.0 1350.0,321.8 C1400.0,286.6 1450.0,248.9 1500.0,213.8 C1550.0,178.6 1600.0,142.4 1650.0,110.7 C1700.0,78.9 1775.0,37.8 1800.0,23.2" fill="none" stroke="url(#sl)" stroke-width="5.1" filter="url(#soft)" opacity=".55"/>
<path d="M-300.0,1042.4 C-275.0,1029.7 -200.0,990.8 -150.0,966.1 C-100.0,941.5 -50.0,916.8 0.0,894.5 C50.0,872.1 100.0,851.2 150.0,832.3 C200.0,813.3 250.0,796.6 300.0,780.7 C350.0,764.8 400.0,751.1 450.0,736.9 C500.0,722.6 550.0,709.9 600.0,695.1 C650.0,680.3 700.0,665.8 750.0,648.2 C800.0,630.7 850.0,611.9 900.0,589.8 C950.0,567.6 1000.0,543.0 1050.0,515.5 C1100.0,488.0 1150.0,457.2 1200.0,424.9 C1250.0,392.7 1300.0,357.0 1350.0,321.8 C1400.0,286.6 1450.0,248.9 1500.0,213.8 C1550.0,178.6 1600.0,142.4 1650.0,110.7 C1700.0,78.9 1775.0,37.8 1800.0,23.2" fill="none" stroke="url(#sl)" stroke-width="1.6" stroke-linecap="round"/>
<path d="M-300.0,1049.7 C-275.0,1037.8 -200.0,1000.4 -150.0,978.1 C-100.0,955.8 -50.0,934.8 0.0,915.8 C50.0,896.8 100.0,880.0 150.0,864.1 C200.0,848.1 250.0,834.5 300.0,820.3 C350.0,806.0 400.0,793.3 450.0,778.7 C500.0,764.0 550.0,749.6 600.0,732.2 C650.0,714.9 700.0,696.3 750.0,674.3 C800.0,652.4 850.0,627.9 900.0,600.6 C950.0,573.3 1000.0,542.7 1050.0,510.5 C1100.0,478.3 1150.0,442.8 1200.0,407.6 C1250.0,372.3 1300.0,334.6 1350.0,299.2 C1400.0,263.8 1450.0,227.5 1500.0,195.4 C1550.0,163.3 1600.0,132.2 1650.0,106.7 C1700.0,81.3 1775.0,53.2 1800.0,42.5" fill="none" stroke="url(#sl2)" stroke-width="0.7" stroke-linecap="round"/>
<path d="M-300.0,1061.7 C-275.0,1051.3 -200.0,1018.3 -150.0,999.3 C-100.0,980.3 -50.0,963.4 0.0,947.5 C50.0,931.5 100.0,917.8 150.0,903.6 C200.0,889.4 250.0,876.8 300.0,862.3 C350.0,847.7 400.0,833.5 450.0,816.2 C500.0,799.0 550.0,780.6 600.0,758.9 C650.0,737.1 700.0,712.9 750.0,685.7 C800.0,658.6 850.0,628.2 900.0,596.1 C950.0,564.0 1000.0,528.5 1050.0,493.3 C1100.0,458.1 1150.0,420.2 1200.0,384.7 C1250.0,349.2 1300.0,312.5 1350.0,280.1 C1400.0,247.8 1450.0,216.3 1500.0,190.3 C1550.0,164.4 1600.0,141.5 1650.0,124.6 C1700.0,107.7 1775.0,94.9 1800.0,88.9" fill="none" stroke="url(#sl)" stroke-width="1.0" stroke-linecap="round"/>
<path d="M-300.0,1082.8 C-275.0,1074.1 -200.0,1046.8 -150.0,1030.8 C-100.0,1014.9 -50.0,1001.2 0.0,987.0 C50.0,972.8 100.0,960.3 150.0,945.8 C200.0,931.3 250.0,917.3 300.0,900.2 C350.0,883.1 400.0,864.9 450.0,843.4 C500.0,821.8 550.0,797.8 600.0,770.9 C650.0,743.9 700.0,713.6 750.0,681.7 C800.0,649.7 850.0,614.3 900.0,579.1 C950.0,543.8 1000.0,505.9 1050.0,470.2 C1100.0,434.5 1150.0,397.7 1200.0,365.0 C1250.0,332.3 1300.0,300.4 1350.0,274.0 C1400.0,247.7 1450.0,224.2 1500.0,206.8 C1550.0,189.4 1600.0,176.6 1650.0,169.5 C1700.0,162.4 1775.0,164.8 1800.0,163.9" fill="none" stroke="url(#sl2)" stroke-width="0.7" stroke-linecap="round"/>
<path d="M-300.0,1114.2 C-275.0,1106.9 -200.0,1084.5 -150.0,1070.3 C-100.0,1056.2 -50.0,1043.7 0.0,1029.3 C50.0,1015.0 100.0,1001.0 150.0,984.1 C200.0,967.2 250.0,949.2 300.0,927.9 C350.0,906.5 400.0,882.7 450.0,855.9 C500.0,829.2 550.0,799.1 600.0,767.2 C650.0,735.4 700.0,700.1 750.0,664.8 C800.0,629.6 850.0,591.6 900.0,555.8 C950.0,519.9 1000.0,482.8 1050.0,449.8 C1100.0,416.9 1150.0,384.6 1200.0,357.8 C1250.0,331.0 1300.0,307.0 1350.0,289.1 C1400.0,271.1 1450.0,257.8 1500.0,250.1 C1550.0,242.5 1600.0,240.6 1650.0,243.0 C1700.0,245.4 1775.0,260.9 1800.0,264.5" fill="none" stroke="url(#sl)" stroke-width="1.0" stroke-linecap="round"/>
</svg>